<svg viewBox="0 0 48 48" fill="none" xmlns="http://www.w3.org/2000/svg">
  <defs>
    <linearGradient id="bg" x1="8" y1="4" x2="40" y2="44" gradientUnits="userSpaceOnUse">
      <stop stop-color="#0A3D9E"/>
      <stop offset="0.45" stop-color="#0066FF"/>
      <stop offset="1" stop-color="#5B4FFF"/>
    </linearGradient>
    <radialGradient id="glow" cx="50%" cy="35%" r="55%">
      <stop stop-color="white" stop-opacity="0.28"/>
      <stop offset="1" stop-color="white" stop-opacity="0"/>
    </radialGradient>
    <filter id="starGlow" x="-100%" y="-100%" width="300%" height="300%">
      <feGaussianBlur stdDeviation="1" result="b"/>
      <feMerge><feMergeNode in="b"/><feMergeNode in="SourceGraphic"/></feMerge>
    </filter>
  </defs>
  <rect width="48" height="48" rx="14" fill="url(#bg)"/>
  <rect width="48" height="48" rx="14" fill="url(#glow)"/>
  <text x="24" y="33" text-anchor="middle" fill="white" font-size="28" font-weight="800" font-family="system-ui,sans-serif">P</text>
  <g transform="translate(37 9)" fill="white" filter="url(#starGlow)">
    <path d="M0 -3.5 L0.85 -0.95 L3.5 0 L0.85 0.95 L0 3.5 L-0.85 0.95 L-3.5 0 L-0.85 -0.95Z"/>
  </g>
  <g transform="translate(9 7)" fill="white" filter="url(#starGlow)">
    <path d="M0 -3.5 L0.85 -0.95 L3.5 0 L0.85 0.95 L0 3.5 L-0.85 0.95 L-3.5 0 L-0.85 -0.95Z"/>
  </g>
  <g transform="translate(35 33) scale(0.85)" fill="white" filter="url(#starGlow)">
    <path d="M0 -3.5 L0.85 -0.95 L3.5 0 L0.85 0.95 L0 3.5 L-0.85 0.95 L-3.5 0 L-0.85 -0.95Z"/>
  </g>
</svg>
